# This file uses centimeters as units for non-parametric coordinates.

mtllib Gate_Low.mtl
g default
v -5.742192 1.257810 -0.750000
v 0.007809 1.257810 -0.750000
v -5.742192 21.930748 -0.750000
v 0.007809 21.930748 -0.750000
v -5.742192 21.930748 -1.199997
v 0.007809 21.930748 -1.199997
v -5.742192 1.257810 -1.199997
v 0.007809 1.257810 -1.199997
vt 0.500000 0.023070
vt 0.540000 0.023070
vt 0.540000 0.976930
vt 0.500000 0.976930
vt 0.000000 0.023070
vt 0.040000 0.023070
vt 0.040000 0.976930
vt 0.000000 0.976930
vt 0.500000 1.000000
vt 0.040000 1.000000
vt 0.040000 0.000000
vt 0.500000 0.000000
vt 1.000000 0.976930
vt 1.000000 0.023070
vn 0.000000 0.000000 1.000000
vn 0.000000 0.000000 1.000000
vn 0.000000 0.000000 1.000000
vn 0.000000 0.000000 1.000000
vn 0.000000 1.000000 0.000000
vn 0.000000 1.000000 0.000000
vn 0.000000 1.000000 0.000000
vn 0.000000 1.000000 0.000000
vn 0.000000 0.000000 -1.000000
vn 0.000000 0.000000 -1.000000
vn 0.000000 0.000000 -1.000000
vn 0.000000 0.000000 -1.000000
vn 0.000000 -1.000000 0.000000
vn 0.000000 -1.000000 0.000000
vn 0.000000 -1.000000 0.000000
vn 0.000000 -1.000000 0.000000
vn 1.000000 0.000000 0.000000
vn 1.000000 0.000000 0.000000
vn 1.000000 0.000000 0.000000
vn 1.000000 0.000000 0.000000
vn -1.000000 0.000000 0.000000
vn -1.000000 0.000000 0.000000
vn -1.000000 0.000000 0.000000
vn -1.000000 0.000000 0.000000
s off
g initialShadingGroup pasted__pCube2 group
f 1/6/1 2/1/2 4/4/3 3/7/4
f 3/7/5 4/4/6 6/9/7 5/10/8
f 5/13/9 6/3/10 8/2/11 7/14/12
f 7/11/13 8/12/14 2/1/15 1/6/16
f 2/1/17 8/2/18 6/3/19 4/4/20
f 7/5/21 1/6/22 3/7/23 5/8/24
